<svg id="star" xmlns="http://www.w3.org/2000/svg" width="19.9" height="19.53" viewBox="0 0 19.9 19.53">
  <path id="Path_17" data-name="Path 17" d="M101.6,208.215a4.541,4.541,0,0,1,.276-.627,1.562,1.562,0,0,1,1.2-.68c1.461-.21,2.92-.433,4.381-.647a.875.875,0,0,0,.713-.537c.658-1.382,1.325-2.759,1.987-4.138a1.472,1.472,0,0,1,1.523-.939,1.442,1.442,0,0,1,1.239.892l1.153,2.389c.291.6.583,1.2.865,1.8a.882.882,0,0,0,.736.534c1.5.216,3,.443,4.5.667A1.452,1.452,0,0,1,121.421,208a1.517,1.517,0,0,1-.429,1.613c-1.069,1.07-2.138,2.145-3.217,3.208a.979.979,0,0,0-.3.946c.264,1.52.512,3.043.765,4.566a1.491,1.491,0,0,1-.591,1.539,1.424,1.424,0,0,1-1.629.094c-1.243-.667-2.5-1.311-3.723-2.016a1.331,1.331,0,0,0-1.494,0c-1.229.708-2.488,1.36-3.741,2.025a1.49,1.49,0,0,1-2.181-.927,2.294,2.294,0,0,1,.024-1.023q.359-2.146.722-4.291a.884.884,0,0,0-.279-.878,5.1,5.1,0,0,1-.362-.36.414.414,0,0,1-.032-.587.393.393,0,0,1,.574.017c.015.013.028.027.042.041.923.891.972,1.082.719,2.532-.228,1.311-.437,2.626-.662,3.939a.758.758,0,0,0,.276.794.712.712,0,0,0,.822.03c1.328-.716,2.661-1.423,3.984-2.15a1.617,1.617,0,0,1,1.678,0c1.312.72,2.632,1.423,3.949,2.131a.71.71,0,0,0,1.064-.269.915.915,0,0,0,.069-.5q-.371-2.315-.77-4.625a1.644,1.644,0,0,1,.474-1.539q1.625-1.615,3.243-3.235a.786.786,0,0,0,.286-.721.734.734,0,0,0-.7-.639c-.569-.089-1.14-.167-1.71-.252l-2.843-.424a1.525,1.525,0,0,1-1.206-.921q-1-2.087-2.01-4.171a.725.725,0,0,0-.76-.5.647.647,0,0,0-.507.289,2.126,2.126,0,0,0-.163.293c-.651,1.348-1.305,2.694-1.946,4.048a1.651,1.651,0,0,1-1.355.987c-1.468.207-2.933.431-4.4.647a.786.786,0,0,0-.618.359.747.747,0,0,0,.126.946c.185.2.382.378.566.574a.341.341,0,0,1,.091.416.607.607,0,0,1-.295.249.353.353,0,0,1-.3-.078,7.234,7.234,0,0,1-.789-.82,2.857,2.857,0,0,1-.292-.659Q101.6,208.454,101.6,208.215Z" transform="translate(-101.6 -200.642)" fill="#fcae02"/>
  <path id="Path_18" data-name="Path 18" d="M145.239,402.371a.407.407,0,0,1-.389-.393.386.386,0,1,1,.389.393Z" transform="translate(-142.749 -391.58)" fill="#fcae02"/>
</svg>
